{
  "accessors": [
    {
      "bufferView": 2,
      "componentType": 5126,
      "count": 1572,
      "max": [
        6.318187236785889,
        3.4667270183563232,
        18.276174545288086
      ],
      "min": [
        -10.611187934875488,
        -3.4667270183563232,
        0.14460960030555725
      ],
      "type": "VEC3"
    },
    {
      "bufferView": 2,
      "byteOffset": 18864,
      "componentType": 5126,
      "count": 1572,
      "max": [
        0.9999843835830688,
        0.9999872446060181,
        0.999732494354248
      ],
      "min": [
        -0.9999979734420776,
        -0.9999872446060181,
        -1.0
      ],
      "type": "VEC3"
    },
    {
      "bufferView": 1,
      "componentType": 5126,
      "count": 1572,
      "max": [
        0.9993879199028015,
        0.999927818775177
      ],
      "min": [
        7.21207179594785e-05,
        7.21207179594785e-05
      ],
      "type": "VEC2"
    },
    {
      "bufferView": 0,
      "componentType": 5125,
      "count": 8004,
      "type": "SCALAR"
    },
    {
      "bufferView": 2,
      "byteOffset": 37728,
      "componentType": 5126,
      "count": 8263,
      "max": [
        14.073040962219238,
        3.386556386947632,
        22.142141342163086
      ],
      "min": [
        -9.371085166931152,
        -3.398737907409668,
        5.155339241027832
      ],
      "type": "VEC3"
    },
    {
      "bufferView": 2,
      "byteOffset": 136884,
      "componentType": 5126,
      "count": 8263,
      "max": [
        0.999988317489624,
        0.9998323917388916,
        0.99981689453125
      ],
      "min": [
        -0.9999926090240479,
        -0.9998323917388916,
        -0.9999687671661377
      ],
      "type": "VEC3"
    },
    {
      "bufferView": 1,
      "byteOffset": 12576,
      "componentType": 5126,
      "count": 8263,
      "max": [
        0.9970352053642273,
        0.9977220296859741
      ],
      "min": [
        0.0030821850523352623,
        0.005488140508532524
      ],
      "type": "VEC2"
    },
    {
      "bufferView": 0,
      "byteOffset": 32016,
      "componentType": 5125,
      "count": 43878,
      "type": "SCALAR"
    }
  ],
  "asset": {
    "extras": {
      "author": "Locur (https://sketchfab.com/Locur)",
      "license": "CC-BY-4.0 (http://creativecommons.org/licenses/by/4.0/)",
      "source": "https://sketchfab.com/3d-models/ponyta-pokemon-e4e73f5a6b174e2d8fa957d7b720c7aa",
      "title": "Ponyta - Pokemon"
    },
    "generator": "Sketchfab-12.67.0",
    "version": "2.0"
  },
  "bufferViews": [
    {
      "buffer": 0,
      "byteLength": 207528,
      "name": "floatBufferViews",
      "target": 34963
    },
    {
      "buffer": 0,
      "byteLength": 78680,
      "byteOffset": 207528,
      "byteStride": 8,
      "name": "floatBufferViews",
      "target": 34962
    },
    {
      "buffer": 0,
      "byteLength": 236040,
      "byteOffset": 286208,
      "byteStride": 12,
      "name": "floatBufferViews",
      "target": 34962
    }
  ],
  "buffers": [
    {
      "byteLength": 522248,
      "uri": "scene.bin"
    }
  ],
  "images": [
    {
      "uri": "textures/Body_baseColor.jpeg"
    },
    {
      "uri": "textures/Hair_baseColor.jpeg"
    }
  ],
  "materials": [
    {
      "doubleSided": true,
      "name": "Body",
      "pbrMetallicRoughness": {
        "baseColorTexture": {
          "index": 0
        },
        "metallicFactor": 0.0,
        "roughnessFactor": 0.8211145618000169
      }
    },
    {
      "doubleSided": true,
      "name": "Hair",
      "pbrMetallicRoughness": {
        "baseColorTexture": {
          "index": 1
        },
        "metallicFactor": 0.20802734566149297,
        "roughnessFactor": 0.6220305560391419
      }
    }
  ],
  "meshes": [
    {
      "name": "cuerpo_Body_0",
      "primitives": [
        {
          "attributes": {
            "NORMAL": 1,
            "POSITION": 0,
            "TEXCOORD_0": 2
          },
          "indices": 3,
          "material": 0,
          "mode": 4
        }
      ]
    },
    {
      "name": "cuerpo_Hair_0",
      "primitives": [
        {
          "attributes": {
            "NORMAL": 5,
            "POSITION": 4,
            "TEXCOORD_0": 6
          },
          "indices": 7,
          "material": 1,
          "mode": 4
        }
      ]
    }
  ],
  "nodes": [
    {
      "children": [
        1
      ],
      "matrix": [
        1.0,
        0.0,
        0.0,
        0.0,
        0.0,
        2.220446049250313e-16,
        -1.0,
        0.0,
        0.0,
        1.0,
        2.220446049250313e-16,
        0.0,
        0.0,
        0.0,
        0.0,
        1.0
      ],
      "name": "Sketchfab_model"
    },
    {
      "children": [
        2
      ],
      "matrix": [
        1.0,
        0.0,
        0.0,
        0.0,
        0.0,
        0.0,
        1.0,
        0.0,
        0.0,
        -1.0,
        0.0,
        0.0,
        0.0,
        0.0,
        0.0,
        1.0
      ],
      "name": "2e9649131de647588aae8e3c6c5ecefb.fbx"
    },
    {
      "children": [
        3
      ],
      "name": "RootNode"
    },
    {
      "children": [
        4,
        5
      ],
      "matrix": [
        -0.05069906932235098,
        -1.5082433300839194e-15,
        -9.056556892251736,
        0.0,
        -9.056556892094909,
        -5.3298369740377506e-05,
        0.050699069321472175,
        0.0,
        -5.329754023377445e-05,
        9.056699752650788,
        2.983623578886711e-07,
        0.0,
        0.0,
        0.0,
        0.0,
        1.0
      ],
      "name": "cuerpo"
    },
    {
      "mesh": 0,
      "name": "cuerpo_Body_0"
    },
    {
      "mesh": 1,
      "name": "cuerpo_Hair_0"
    }
  ],
  "samplers": [
    {
      "magFilter": 9729,
      "minFilter": 9987,
      "wrapS": 10497,
      "wrapT": 10497
    }
  ],
  "scene": 0,
  "scenes": [
    {
      "name": "Sketchfab_Scene",
      "nodes": [
        0
      ]
    }
  ],
  "textures": [
    {
      "sampler": 0,
      "source": 0
    },
    {
      "sampler": 0,
      "source": 1
    }
  ]
}
