{
  "accessors": [
    {
      "bufferView": 2,
      "componentType": 5126,
      "count": 6796,
      "max": [
        130.4500732421875,
        313.4219970703125,
        136.24537658691406
      ],
      "min": [
        -239.26708984375,
        37.41224670410156,
        -218.20436096191406
      ],
      "type": "VEC3"
    },
    {
      "bufferView": 2,
      "byteOffset": 81552,
      "componentType": 5126,
      "count": 6796,
      "max": [
        0.9996508955955505,
        0.9994093775749207,
        0.999937117099762
      ],
      "min": [
        -0.9997773766517639,
        -0.999956488609314,
        -0.9995278120040894
      ],
      "type": "VEC3"
    },
    {
      "bufferView": 3,
      "componentType": 5126,
      "count": 6796,
      "max": [
        0.999934732913971,
        0.9998217821121216,
        0.9992663264274597,
        1.0
      ],
      "min": [
        -0.9999922513961792,
        -0.9992642998695374,
        -0.9999728202819824,
        -1.0
      ],
      "type": "VEC4"
    },
    {
      "bufferView": 1,
      "componentType": 5126,
      "count": 6796,
      "max": [
        0.9998377561569214,
        0.9805262684822083
      ],
      "min": [
        0.021188437938690186,
        0.015001654624938965
      ],
      "type": "VEC2"
    },
    {
      "bufferView": 1,
      "byteOffset": 54368,
      "componentType": 5126,
      "count": 6796,
      "max": [
        0.9222256541252136,
        0.9894900918006897
      ],
      "min": [
        0.12848488986492157,
        0.20015093684196472
      ],
      "type": "VEC2"
    },
    {
      "bufferView": 1,
      "byteOffset": 108736,
      "componentType": 5126,
      "count": 6796,
      "max": [
        0.9998377561569214,
        0.9805262684822083
      ],
      "min": [
        0.021188437938690186,
        0.015001654624938965
      ],
      "type": "VEC2"
    },
    {
      "bufferView": 0,
      "componentType": 5125,
      "count": 33624,
      "type": "SCALAR"
    },
    {
      "bufferView": 2,
      "byteOffset": 163104,
      "componentType": 5126,
      "count": 1747,
      "max": [
        168.71910095214844,
        211.85577392578125,
        166.75228881835938
      ],
      "min": [
        -147.6785125732422,
        0.0,
        -156.323486328125
      ],
      "type": "VEC3"
    },
    {
      "bufferView": 2,
      "byteOffset": 184068,
      "componentType": 5126,
      "count": 1747,
      "max": [
        0.9984892010688782,
        0.9998458623886108,
        0.9990233182907104
      ],
      "min": [
        -0.9986120462417603,
        -1.0,
        -0.9956023097038269
      ],
      "type": "VEC3"
    },
    {
      "bufferView": 3,
      "byteOffset": 108736,
      "componentType": 5126,
      "count": 1747,
      "max": [
        0.9980600476264954,
        0.9999626874923706,
        0.9995177388191223,
        1.0
      ],
      "min": [
        -0.9999085664749146,
        -0.9979072213172913,
        -0.9995643496513367,
        -1.0
      ],
      "type": "VEC4"
    },
    {
      "bufferView": 1,
      "byteOffset": 163104,
      "componentType": 5126,
      "count": 1747,
      "max": [
        0.99517822265625,
        0.9996089339256287
      ],
      "min": [
        0.002872137352824211,
        0.00018900632858276367
      ],
      "type": "VEC2"
    },
    {
      "bufferView": 1,
      "byteOffset": 177080,
      "componentType": 5126,
      "count": 1747,
      "max": [
        0.9699654579162598,
        0.9935331344604492
      ],
      "min": [
        0.0448676198720932,
        0.01921534538269043
      ],
      "type": "VEC2"
    },
    {
      "bufferView": 1,
      "byteOffset": 191056,
      "componentType": 5126,
      "count": 1747,
      "max": [
        0.99517822265625,
        0.9996089339256287
      ],
      "min": [
        0.002872137352824211,
        0.00018900632858276367
      ],
      "type": "VEC2"
    },
    {
      "bufferView": 0,
      "byteOffset": 134496,
      "componentType": 5125,
      "count": 7725,
      "type": "SCALAR"
    }
  ],
  "asset": {
    "extras": {
      "author": "hatsaru (https://sketchfab.com/hatsaru)",
      "license": "CC-BY-NC-SA-4.0 (http://creativecommons.org/licenses/by-nc-sa/4.0/)",
      "source": "https://sketchfab.com/3d-models/pokemon-715-noivern-581a3e5afc244456a9fd7ec43f6c3343",
      "title": "Pokémon #715 - Noivern"
    },
    "generator": "Sketchfab-12.66.0",
    "version": "2.0"
  },
  "bufferViews": [
    {
      "buffer": 0,
      "byteLength": 165396,
      "name": "floatBufferViews",
      "target": 34963
    },
    {
      "buffer": 0,
      "byteLength": 205032,
      "byteOffset": 165396,
      "byteStride": 8,
      "name": "floatBufferViews",
      "target": 34962
    },
    {
      "buffer": 0,
      "byteLength": 205032,
      "byteOffset": 370428,
      "byteStride": 12,
      "name": "floatBufferViews",
      "target": 34962
    },
    {
      "buffer": 0,
      "byteLength": 136688,
      "byteOffset": 575460,
      "byteStride": 16,
      "name": "floatBufferViews",
      "target": 34962
    }
  ],
  "buffers": [
    {
      "byteLength": 712148,
      "uri": "scene.bin"
    }
  ],
  "images": [
    {
      "uri": "textures/Noivern_baseColor.png"
    },
    {
      "uri": "textures/Noivern_metallicRoughness.png"
    },
    {
      "uri": "textures/Noivern_normal.png"
    },
    {
      "uri": "textures/pedestal_baseColor.png"
    },
    {
      "uri": "textures/pedestal_metallicRoughness.png"
    },
    {
      "uri": "textures/pedestal_normal.png"
    }
  ],
  "materials": [
    {
      "name": "Noivern",
      "normalTexture": {
        "index": 2
      },
      "occlusionTexture": {
        "index": 1
      },
      "pbrMetallicRoughness": {
        "baseColorTexture": {
          "index": 0
        },
        "metallicFactor": 0.0,
        "metallicRoughnessTexture": {
          "index": 1
        }
      }
    },
    {
      "doubleSided": true,
      "name": "pedestal",
      "normalTexture": {
        "index": 5
      },
      "occlusionTexture": {
        "index": 4
      },
      "pbrMetallicRoughness": {
        "baseColorTexture": {
          "index": 3
        },
        "metallicRoughnessTexture": {
          "index": 4
        },
        "roughnessFactor": 0.75
      }
    }
  ],
  "meshes": [
    {
      "name": "Badass_Noivern_Noivern_0",
      "primitives": [
        {
          "attributes": {
            "NORMAL": 1,
            "POSITION": 0,
            "TANGENT": 2,
            "TEXCOORD_0": 3,
            "TEXCOORD_1": 4,
            "TEXCOORD_2": 5
          },
          "indices": 6,
          "material": 0,
          "mode": 4
        }
      ]
    },
    {
      "name": "Badass_Noivern_pedestal_0",
      "primitives": [
        {
          "attributes": {
            "NORMAL": 8,
            "POSITION": 7,
            "TANGENT": 9,
            "TEXCOORD_0": 10,
            "TEXCOORD_1": 11,
            "TEXCOORD_2": 12
          },
          "indices": 13,
          "material": 1,
          "mode": 4
        }
      ]
    }
  ],
  "nodes": [
    {
      "children": [
        1
      ],
      "matrix": [
        1.0,
        0.0,
        0.0,
        0.0,
        0.0,
        2.220446049250313e-16,
        -1.0,
        0.0,
        0.0,
        1.0,
        2.220446049250313e-16,
        0.0,
        0.0,
        0.0,
        0.0,
        1.0
      ],
      "name": "Sketchfab_model"
    },
    {
      "children": [
        2
      ],
      "matrix": [
        1.0,
        0.0,
        0.0,
        0.0,
        0.0,
        0.0,
        1.0,
        0.0,
        0.0,
        -1.0,
        0.0,
        0.0,
        0.0,
        0.0,
        0.0,
        1.0
      ],
      "name": "7686de1125794085a4c55a65ce7e4193.fbx"
    },
    {
      "children": [
        3
      ],
      "name": "RootNode"
    },
    {
      "children": [
        4,
        5
      ],
      "name": "Badass_Noivern"
    },
    {
      "mesh": 0,
      "name": "Badass_Noivern_Noivern_0"
    },
    {
      "mesh": 1,
      "name": "Badass_Noivern_pedestal_0"
    }
  ],
  "samplers": [
    {
      "magFilter": 9729,
      "minFilter": 9987,
      "wrapS": 10497,
      "wrapT": 10497
    }
  ],
  "scene": 0,
  "scenes": [
    {
      "name": "Sketchfab_Scene",
      "nodes": [
        0
      ]
    }
  ],
  "textures": [
    {
      "sampler": 0,
      "source": 0
    },
    {
      "sampler": 0,
      "source": 1
    },
    {
      "sampler": 0,
      "source": 2
    },
    {
      "sampler": 0,
      "source": 3
    },
    {
      "sampler": 0,
      "source": 4
    },
    {
      "sampler": 0,
      "source": 5
    }
  ]
}
